<svg width="30" height="30" viewBox="0 0 30 30" fill="none" xmlns="http://www.w3.org/2000/svg">
<g clip-path="url(#clip0_24_907)">
<path d="M19.8801 0H10.1199C7.43688 0.00297622 4.86456 1.07014 2.96735 2.96735C1.07014 4.86456 0.00297622 7.43688 0 10.1199V19.8801C0.00297622 22.5631 1.07014 25.1354 2.96735 27.0327C4.86456 28.9299 7.43688 29.997 10.1199 30H19.8801C22.5631 29.997 25.1354 28.9299 27.0327 27.0327C28.9299 25.1354 29.997 22.5631 30 19.8801V10.1199C29.997 7.43688 28.9299 4.86456 27.0327 2.96735C25.1354 1.07014 22.5631 0.00297622 19.8801 0ZM27.7511 19.8801C27.7487 21.9669 26.9187 23.9675 25.4431 25.4431C23.9675 26.9187 21.9669 27.7487 19.8801 27.7511H10.1199C8.03314 27.7487 6.03248 26.9187 4.55689 25.4431C3.08129 23.9675 2.25126 21.9669 2.24888 19.8801V10.1199C2.25126 8.03314 3.08129 6.03248 4.55689 4.55689C6.03248 3.08129 8.03314 2.25126 10.1199 2.24888H19.8801C21.9669 2.25126 23.9675 3.08129 25.4431 4.55689C26.9187 6.03248 27.7487 8.03314 27.7511 10.1199V19.8801ZM20.3501 10.9475C20.5981 11.1128 20.7703 11.3698 20.8289 11.6621C20.8876 11.9543 20.8278 12.2578 20.6627 12.506L17.431 17.3546C17.0472 17.9315 16.5276 18.4055 15.9179 18.7349C15.3082 19.0642 14.627 19.2389 13.934 19.2436H13.9048C13.2169 19.2439 12.5393 19.0768 11.9305 18.7567C11.3216 18.4366 10.7998 17.9731 10.41 17.4063L9.34633 15.8546C9.17754 15.6085 9.11339 15.3055 9.16801 15.0122C9.22262 14.7189 9.39153 14.4593 9.63756 14.2905C9.88359 14.1217 10.1866 14.0575 10.4799 14.1122C10.7732 14.1668 11.0329 14.3357 11.2016 14.5817L12.2631 16.1312C12.4446 16.3984 12.6891 16.6168 12.975 16.767C13.261 16.9173 13.5795 16.9947 13.9025 16.9925H13.9183C14.2439 16.9922 14.5643 16.911 14.8508 16.7564C15.1373 16.6017 15.381 16.3784 15.56 16.1064L18.7916 11.2579C18.9576 11.0107 19.2148 10.8393 19.5068 10.7812C19.7988 10.723 20.102 10.7828 20.3501 10.9475Z" fill="#2D3663"/>
</g>
<defs>
<clipPath id="clip0_24_907">
<rect width="30" height="30" fill="white"/>
</clipPath>
</defs>
</svg>
